<svg width="98" height="92" viewBox="0 0 98 92" fill="none" xmlns="http://www.w3.org/2000/svg">
<path d="M0.0810547 70.9792C3.95074 64.0049 7.82382 57.0326 11.7003 50.0622C12.0593 49.4206 12.0364 49.0091 11.545 48.497C10.7252 47.6338 9.94875 46.7419 9.17736 45.8327C7.81024 44.2302 7.8026 42.2478 9.17736 40.6538C11.0715 38.473 12.9851 36.3132 14.9183 34.1745C15.4605 33.5789 15.5038 33.179 15.015 32.4827C12.5939 29.0301 10.3434 25.4682 8.99152 21.2905C8.33978 19.2765 7.95536 17.2107 8.40852 15.0557C8.74052 13.5399 9.54552 12.2105 10.6756 11.3119C11.8056 10.4132 13.1847 10.0058 14.5593 10.1646C17.1917 10.4379 19.5364 11.5772 21.7946 13.0245C23.9767 14.4371 26.0473 16.059 27.9835 17.8725C28.6047 18.4479 28.9408 18.3501 29.4576 17.7459C31.2957 15.6024 33.1771 13.5049 35.0584 11.4161C36.6241 9.66105 38.3528 9.6553 39.9134 11.3902C40.7077 12.2706 41.5096 13.1453 42.2683 14.066C42.6934 14.581 43.0524 14.6414 43.5794 14.2357C44.4424 13.5625 45.3615 12.9612 46.2423 12.3426C47.3421 11.583 48.223 11.6952 48.7398 12.6475C49.2566 13.5999 48.9358 14.5263 47.8309 15.3118C43.9273 18.0854 40.0186 20.8542 36.1048 23.6182C34.5773 24.7029 34.6867 24.5101 35.8502 25.8106C39.0749 29.3859 42.1758 33.0975 45.1527 36.9452C45.6364 37.5724 45.9419 37.653 46.4969 37.0171C49.4196 33.6566 52.3651 30.3239 55.3336 27.019C55.5444 26.8047 55.7099 26.5396 55.8179 26.2433C55.9259 25.947 55.9735 25.627 55.9573 25.3071C55.7511 17.8005 58.2002 11.5715 63.0984 6.5422C63.3988 6.23435 63.7043 5.98115 63.2842 5.50354C62.9304 5.10074 62.6503 4.76411 62.0775 5.17842C59.6971 6.90472 57.2888 8.5965 54.8906 10.2969C54.6233 10.4868 54.356 10.6882 54.0734 10.8493C53.2129 11.3356 52.4007 11.137 51.9705 10.3429C51.5122 9.50856 51.6981 8.51018 52.5153 7.91173C54.5189 6.44725 56.5479 5.03456 58.5642 3.59598C59.2643 3.09536 59.9568 2.58322 60.6645 2.10273C62.4263 0.905835 63.6738 1.06409 65.1427 2.6494C66.2807 3.88083 66.2756 3.86644 67.6733 3.10399C70.6216 1.4738 73.8665 0.646103 77.1486 0.687122C80.4306 0.728142 83.6586 1.63674 86.5743 3.34022C89.4899 5.0437 92.0123 7.49477 93.9396 10.4973C95.867 13.4999 97.1457 16.9706 97.6735 20.6317C97.7117 20.8791 97.7753 21.1208 97.8288 21.3625V27.4045C97.256 31.2426 96.1664 34.8506 94.145 38.05C90.8048 43.3325 86.3156 46.5818 80.6774 47.7978C79.6056 48.028 78.8088 47.5101 78.6051 46.4916C78.4015 45.4731 78.9768 44.656 80.0919 44.4057C85.5935 43.1656 89.817 39.8569 92.5666 34.3356C98.422 22.522 92.6124 7.38809 80.5527 4.61738C70.3337 2.27249 60.7766 9.86245 59.1676 21.4603C57.7419 31.7721 63.8545 41.9284 72.8413 44.1899C74.2594 44.5467 74.9162 45.3091 74.7253 46.3765C74.5165 47.5562 73.6433 48.0079 72.1972 47.5936C64.6081 45.4127 59.5368 40.1129 56.9222 31.7692C56.5505 30.5895 56.5708 30.5751 55.7714 31.4815C53.3631 34.1975 50.9725 36.9481 48.5361 39.6267C47.971 40.2482 47.9913 40.6136 48.4954 41.2753C52.6935 46.7765 56.7439 52.4157 60.4914 58.3196C60.9217 58.9958 61.2756 59.0476 61.9018 58.6764C65.337 56.6298 68.7841 54.6158 72.243 52.6344C73.3491 51.9683 74.6243 51.7529 75.8543 52.0243C77.0843 52.2957 78.1941 53.0374 78.9972 54.1247C80.5247 56.1848 80.4585 58.4836 78.6739 60.2416C75.5094 63.3604 72.2787 66.3958 69.076 69.4658C69.0065 69.5391 68.9316 69.6055 68.852 69.6643C67.7318 70.4354 67.2583 71.4165 67.9788 72.8493C68.1047 73.1801 68.182 73.5319 68.2079 73.8908C68.628 76.5407 67.2328 78.2411 64.8703 78.0081C64.1081 77.9358 63.3625 77.7169 62.6656 77.3607C62.0597 77.05 61.6905 77.2226 61.2781 77.7779C58.5388 81.4693 55.7307 85.1492 52.9965 88.8895C51.8483 90.4604 50.5906 91.6832 48.6863 91.0474C46.6497 90.3655 45.5091 88.6565 45.084 86.3202C44.8141 84.8385 45.1171 83.4689 45.7153 82.1598C47.4542 78.3591 49.1777 74.5497 50.9496 70.7691C51.3009 70.0211 51.25 69.6183 50.6212 69.1061C45.4888 64.9083 40.5549 60.4257 35.7687 55.7388C35.1399 55.1231 34.8038 55.1432 34.2234 55.8021C28.3493 62.4867 22.4582 69.1531 16.5501 75.8013C12.1204 80.8018 6.34892 80.8047 1.91915 75.8186C1.24195 75.0561 0.54949 74.3138 0.0810547 73.3557V70.9792ZM14.4651 13.6488C12.3826 13.6488 11.3897 14.7364 11.349 16.8137C11.3428 18.0037 11.5461 19.1832 11.9472 20.2835C13.2914 24.1878 15.4401 27.5282 17.7314 30.765C19.8597 33.7746 22.1892 36.5798 24.5517 39.3534C25.2977 40.2309 25.3155 41.2322 24.6867 41.9428C24.0578 42.6535 23.177 42.619 22.3954 41.7903C22.0466 41.4221 21.7131 41.0365 21.3898 40.6395C21.0665 40.2424 20.7737 40.1993 20.5064 40.7258C20.318 41.1027 20.099 41.4566 19.8954 41.822C14.634 51.2955 9.37764 60.7691 4.12641 70.2426C2.85348 72.5443 2.80766 71.9689 4.55921 73.8908C7.26799 76.8572 11.2319 76.8284 13.905 73.8247C19.931 67.0576 25.9188 60.2445 31.9449 53.4774C32.5559 52.7926 32.4108 52.4243 31.8405 51.8633C30.4479 50.4966 29.0961 49.0753 27.7519 47.6482C26.8506 46.693 26.7717 45.7119 27.4693 44.9236C28.121 44.1841 28.9739 44.2503 29.8395 45.1307C31.8761 47.1965 33.8746 49.3055 35.9495 51.3368C42.8411 58.1154 49.9134 64.6436 57.5714 70.3059C59.6768 71.8624 61.8178 73.3528 64.216 74.2908C64.4706 74.3915 64.7812 74.6274 65.023 74.3857C65.2649 74.1441 65.0561 73.7786 64.9721 73.4852C64.4797 71.8871 63.8334 70.3549 63.0449 68.9162C60.4329 63.8812 57.4033 59.1684 54.2134 54.588C46.4562 43.4591 38.3324 32.7244 28.951 23.2902C25.8781 20.203 22.65 17.3402 18.956 15.2341C17.4717 14.3882 15.9289 13.7668 14.4651 13.6488ZM76.9402 57.0537C76.8996 56.6967 76.7403 56.3706 76.4946 56.1416C76.1284 55.7353 75.6563 55.4727 75.148 55.3924C74.6397 55.3121 74.1221 55.4184 73.6713 55.6957C70.265 57.6464 66.8866 59.6489 63.4879 61.6169C62.9965 61.9046 62.9507 62.1923 63.2333 62.7131C64.048 64.1325 64.838 65.5711 65.6035 67.0288C65.8912 67.5697 66.1127 67.7452 66.6218 67.2619C69.8856 64.1114 73.1723 60.9868 76.4513 57.8507C76.5779 57.7643 76.6869 57.6486 76.7712 57.5112C76.8554 57.3739 76.913 57.218 76.9402 57.0537ZM48.0728 85.2039C48.0758 85.8566 48.2771 86.4884 48.6431 86.9934C49.2668 87.8566 49.6614 87.8825 50.3106 87.051C50.7943 86.4295 51.2627 85.7966 51.7337 85.1665C53.9308 82.2346 56.1151 79.2884 58.3351 76.3767C58.8774 75.6661 59.0199 75.2661 58.1213 74.7425C56.9495 74.0193 55.8179 73.216 54.7327 72.3372C54.1599 71.8941 53.8519 71.874 53.5031 72.6565C51.8483 76.3767 50.1451 80.071 48.4623 83.7797C48.2262 84.2086 48.092 84.6992 48.0728 85.2039ZM32.4769 22.0242C32.7315 21.8689 32.9861 21.7221 33.2178 21.5524C35.0202 20.2768 36.8219 18.9994 38.6226 17.72C40.2036 16.6008 40.2036 16.6008 38.8517 15.073C38.6153 14.8331 38.3917 14.5776 38.1822 14.3077C37.7265 13.6488 37.3548 13.6459 36.8176 14.276C35.145 16.2411 33.4138 18.1429 31.7259 20.0821C31.5223 20.3123 31.0666 20.531 31.3059 20.9194C31.6045 21.3966 32.0082 21.7774 32.4769 22.0242ZM18.6123 37.4487C18.4146 36.9879 18.1222 36.5874 17.7594 36.2806C17.5277 36.059 17.347 36.318 17.1942 36.4877C15.3281 38.5909 13.4671 40.7028 11.5934 42.8002C11.3031 43.1253 11.3031 43.3757 11.5934 43.7008C12.1662 44.3222 12.7365 44.9495 13.2762 45.6054C13.6581 46.0658 13.8999 46.0658 14.208 45.499C15.5751 42.993 16.9702 40.5071 18.3526 38.0184C18.4496 37.8339 18.538 37.6437 18.6174 37.4487H18.6123Z" fill="url(#paint0_linear_2_1127)"/>
<path d="M90.3781 24.6296C90.3802 26.9944 89.8469 29.3229 88.8259 31.4068C87.8048 33.4908 86.3278 35.2652 84.527 36.5714C82.7262 37.8776 80.6577 38.6749 78.5066 38.8919C76.3554 39.109 74.1887 38.739 72.2001 37.8151C70.6397 37.0941 70.3864 35.8241 71.582 34.5097C76.5183 29.0876 81.4622 23.6757 86.4137 18.274C87.5511 17.0317 88.6936 17.2757 89.3116 18.8785C90.0555 20.6841 90.42 22.6494 90.3781 24.6296ZM87.3763 24.4466C87.3383 24.0972 87.2952 23.6508 87.2395 23.2071C87.2091 22.9769 87.3003 22.6525 87.0647 22.5471C86.7658 22.4029 86.6316 22.7551 86.4669 22.9326C82.885 26.8387 79.309 30.7514 75.7389 34.6705C75.5895 34.8341 75.321 34.9756 75.402 35.2473C75.4831 35.5191 75.7643 35.4664 75.9796 35.4941C77.4097 35.6955 78.8626 35.5596 80.2408 35.0955C81.6189 34.6315 82.8904 33.85 83.9699 32.8036C85.0494 31.7572 85.9119 30.4701 86.4994 29.0287C87.0869 27.5873 87.3859 26.0249 87.3763 24.4466Z" fill="url(#paint1_linear_2_1127)"/>
<path d="M63.3879 24.1587C63.3879 16.1907 68.6582 9.94546 75.9002 9.14635C78.1189 8.92627 80.3531 9.30718 82.4044 10.2553C84.0789 10.9878 84.3284 12.3081 83.0758 13.6805C77.9011 19.3399 72.7201 24.9916 67.533 30.6356C66.3044 31.9762 65.1447 31.7185 64.4574 29.9523C63.7095 28.1323 63.3441 26.1528 63.3879 24.1587ZM79.1138 12.8669C78.8665 12.783 78.6149 12.7153 78.3602 12.6642C71.7976 11.813 66.0151 17.6789 66.6228 24.9984C66.6573 25.398 66.4875 26.0262 66.9094 26.1565C67.3314 26.2868 67.5383 25.7106 67.8117 25.4124C71.35 21.552 74.8882 17.6915 78.4265 13.831C78.676 13.5531 79.013 13.3475 79.1138 12.8553V12.8669Z" fill="url(#paint2_linear_2_1127)"/>
<defs>
<linearGradient id="paint0_linear_2_1127" x1="23.4993" y1="-39.3579" x2="130.218" y2="10.2274" gradientUnits="userSpaceOnUse">
<stop stop-color="#8CD742"/>
<stop offset="1" stop-color="#27A02D"/>
</linearGradient>
<linearGradient id="paint1_linear_2_1127" x1="75.5154" y1="7.99078" x2="98.0117" y2="16.8073" gradientUnits="userSpaceOnUse">
<stop stop-color="#8CD742"/>
<stop offset="1" stop-color="#27A02D"/>
</linearGradient>
<linearGradient id="paint2_linear_2_1127" x1="68.2911" y1="-0.822001" x2="91.8337" y2="8.4412" gradientUnits="userSpaceOnUse">
<stop stop-color="#8CD742"/>
<stop offset="1" stop-color="#27A02D"/>
</linearGradient>
</defs>
</svg>
