<svg width="70" height="99" viewBox="0 0 70 99" fill="none" xmlns="http://www.w3.org/2000/svg">
<path d="M34.959 98.9944C26.9597 98.9944 18.9595 98.9944 10.9584 98.9944C4.71826 98.9944 0.11402 94.3133 0.108549 87.9517C0.0976061 76.2798 0.0976061 64.6079 0.108549 52.936C0.108549 47.6789 3.28747 43.5291 8.29385 42.2791C9.14193 42.0666 9.36077 41.6779 9.3553 40.8446C9.32521 35.951 9.33068 31.0574 9.3553 26.1667C9.39633 12.7219 19.5486 1.4862 32.65 0.132773C46.397 -1.28776 58.3385 8.86293 60.4122 22.3105C60.6251 23.8675 60.7166 25.4393 60.6857 27.0111C60.6666 31.6251 60.6857 36.2391 60.6666 40.8502C60.6666 41.6891 60.8909 42.0694 61.7335 42.2791C66.7262 43.5095 69.9051 47.6677 69.9106 52.936C69.9234 64.6079 69.9234 76.2798 69.9106 87.9517C69.9106 94.3189 65.3009 98.9888 59.058 98.9944C51.0241 99.0019 42.9911 99.0019 34.959 98.9944ZM35.0684 94.744H58.6585C63.3257 94.744 65.963 92.0399 65.9657 87.2582C65.9657 76.1101 65.9657 64.9621 65.9657 53.814C65.9657 49.0603 63.312 46.3478 58.6367 46.3478H11.5658C6.88221 46.3478 4.25592 49.0351 4.25592 53.828C4.25592 64.9742 4.25592 76.1213 4.25592 87.2694C4.25592 92.0483 6.89589 94.7412 11.574 94.744H35.0684ZM34.9535 42.1086C38.8519 42.1086 42.7503 42.0834 46.646 42.1281C47.6309 42.1281 47.9455 41.8177 47.9345 40.8111C47.8935 36.1999 47.9126 31.5832 47.9345 26.972C47.937 26.0292 47.8665 25.0876 47.7239 24.1561C46.7609 17.8643 41.4317 13.063 35.3091 12.9959C33.5846 12.9808 31.8741 13.3143 30.2761 13.9772C28.6781 14.6401 27.2241 15.6194 25.9976 16.8588C24.7712 18.0981 23.7965 19.573 23.1297 21.1987C22.4628 22.8244 22.117 24.5688 22.112 26.3316C22.0737 31.1553 22.112 35.9762 22.0874 40.7999C22.0874 41.7926 22.3609 42.1421 23.365 42.1281C27.2278 42.0806 31.0906 42.1086 34.9535 42.1086ZM56.5357 32.6346C56.4153 30.2102 56.6533 27.1398 56.377 24.0666C55.2526 11.6005 43.8446 2.49288 31.739 4.45032C21.4308 6.12812 13.5601 15.4427 13.4917 26.1079C13.4589 31.0015 13.5081 35.8951 13.4698 40.7859C13.4698 41.7618 13.7161 42.2232 14.7337 42.1225C15.3816 42.0596 16.0338 42.0596 16.6816 42.1225C17.6582 42.2148 17.9893 41.8429 17.9783 40.8195C17.9373 35.9622 17.9236 31.105 17.9783 26.2478C18.0412 20.4537 20.3365 15.6832 24.8669 12.2661C30.3383 8.14707 36.3569 7.47035 42.4767 10.5379C48.6595 13.6391 51.8056 18.9801 52.0518 25.9961C52.1913 30.2521 52.0791 34.5221 52.0791 38.7837C52.0791 42.1645 52.0791 42.1393 55.362 42.1393C56.3469 42.1393 56.5794 41.7534 56.563 40.839C56.5056 38.3139 56.5357 35.7972 56.5357 32.6346Z" fill="url(#paint0_linear_2_1121)"/>
<path d="M32.9346 81.9089C32.9278 81.8046 32.9278 81.6999 32.9346 81.5957C33.1672 79.7697 32.7431 78.5672 30.9102 77.5522C27.8079 75.838 26.7765 71.7162 28.1471 68.3662C29.4466 65.1952 33.0468 63.179 36.2476 63.8333C39.9381 64.5883 42.4276 67.5497 42.4139 71.2492C42.4139 74.5014 40.9257 76.8587 38.0559 78.2401C37.3118 78.598 37.0464 79.0286 37.0738 79.8368C37.123 81.3049 37.1011 82.7729 37.0738 84.241C37.0574 85.6643 36.212 86.5983 34.9919 86.5927C33.7718 86.5871 32.9538 85.6476 32.9292 84.2186C32.9237 83.4468 32.9346 82.6778 32.9346 81.9089ZM34.9426 74.6188C35.8054 74.6338 36.6388 74.2983 37.2599 73.686C37.881 73.0737 38.2391 72.2345 38.2556 71.3527C38.2775 69.6301 36.781 68.0614 35.0712 68.0139C33.3614 67.9663 31.8294 69.4819 31.7665 71.2213C31.7541 71.6582 31.8267 72.0933 31.9801 72.5014C32.1335 72.9094 32.3647 73.2823 32.6601 73.5983C32.9556 73.9144 33.3095 74.1673 33.7013 74.3425C34.0931 74.5177 34.515 74.6116 34.9426 74.6188Z" fill="url(#paint1_linear_2_1121)"/>
<defs>
<linearGradient id="paint0_linear_2_1121" x1="16.8277" y1="-43.7885" x2="101.695" y2="-18.0314" gradientUnits="userSpaceOnUse">
<stop stop-color="#8CD742"/>
<stop offset="1" stop-color="#27A02D"/>
</linearGradient>
<linearGradient id="paint1_linear_2_1121" x1="31.1131" y1="53.589" x2="49.4118" y2="58.7033" gradientUnits="userSpaceOnUse">
<stop stop-color="#8CD742"/>
<stop offset="1" stop-color="#27A02D"/>
</linearGradient>
</defs>
</svg>
