<svg width="89" height="99" viewBox="0 0 89 99" fill="none" xmlns="http://www.w3.org/2000/svg">
<path d="M23.1691 99C21.1423 98.5092 19.2674 97.7559 17.8056 96.2834C15.9051 94.3661 15.0982 92.0762 15.1004 89.4877C15.1089 76.0221 15.1089 62.5564 15.1004 49.0907C15.1004 48.69 15.2095 48.2613 14.987 47.8686C14.9035 47.8686 14.8029 47.8425 14.7729 47.8686C13.1849 49.8119 10.7728 50.2467 8.47846 50.8958C6.53512 51.4447 4.59106 51.991 2.6463 52.5346C1.87367 52.7509 1.13528 52.7349 0.531734 52.1639C-0.0718144 51.5929 -0.0140267 50.8958 0.238522 50.1805C1.19307 47.4559 2.14049 44.7299 3.08077 42.0026C3.33618 41.265 3.78677 40.6 4.3906 40.0693C7.693 37.0641 10.9718 34.0249 14.2849 31.0238C14.5599 30.787 14.7768 30.4974 14.9209 30.1747C15.065 29.8521 15.1328 29.5041 15.1196 29.1546C15.1667 26.1955 14.9056 23.2285 15.278 20.2754C15.8109 16.1223 19.6891 12.6303 24.1365 12.6404C26.159 12.6404 27.5202 12.0293 28.86 10.7011C31.2442 8.33901 33.804 6.13124 36.2974 3.86537C37.879 2.42691 39.6276 2.43492 41.2199 3.86537C42.4891 5.01333 42.5041 5.01934 43.7732 3.82129C44.5608 3.08203 45.3634 2.45896 46.5834 2.95781C47.0114 3.13411 47.2897 2.82559 47.5593 2.57916C48.272 1.92404 48.9612 1.24889 49.6996 0.613805C50.6327 -0.199585 51.5102 -0.209603 52.4284 0.613805C53.8381 1.89065 55.225 3.18887 56.589 4.50846C57.4986 5.38797 57.5307 6.25745 56.6532 7.163C55.9855 7.85218 55.2193 8.46122 54.483 9.08829C54.0699 9.43889 53.8538 9.75944 54.0871 10.3384C54.3995 11.1158 53.9736 11.7709 53.338 12.3419C53.689 12.6804 54.0849 12.5562 54.4274 12.5562C58.1107 12.5562 61.7941 12.5823 65.4753 12.5562C65.9199 12.5407 66.3627 12.6164 66.7727 12.778C67.1828 12.9396 67.55 13.1833 67.8488 13.4918C73.9842 19.4033 80.1331 25.3067 86.2956 31.2021C86.9184 31.8031 87.4984 32.4402 88.1191 33.0412C88.7804 33.6823 88.8254 34.4837 88.8275 35.2931C88.8275 38.4505 88.8275 41.6079 88.8275 44.7653C88.8275 59.5506 88.8275 74.3365 88.8275 89.1231C88.8275 91.5272 88.2775 93.7831 86.5888 95.7004C85.4988 96.957 84.0632 97.9114 82.4367 98.4611C81.8888 98.6474 81.3345 98.8177 80.7823 98.994L23.1691 99ZM85.3004 63.4512C85.3004 54.9153 85.3004 46.3787 85.3004 37.8414C85.3004 35.8641 85.4823 35.9883 83.3742 35.9883C79.1065 35.9883 74.8389 35.9883 70.5712 35.9883C66.7894 35.9783 64.4437 33.7845 64.4351 30.2585C64.4351 25.851 64.4202 21.4314 64.448 17.0178C64.448 16.2165 64.234 15.8519 63.288 15.8579C58.9882 15.8919 54.6863 15.8799 50.3844 15.8579C50.094 15.8533 49.8058 15.9063 49.5387 16.0133C49.2717 16.1204 49.0318 16.279 48.8349 16.4789C46.4592 18.6827 44.0536 20.8384 41.6779 23.0321C34.5224 29.6354 27.3733 36.2467 20.2305 42.866C20.0738 43.0374 19.8972 43.192 19.704 43.3268C18.8009 43.8437 18.6104 44.597 18.6125 45.5466C18.6396 60.1396 18.6475 74.7332 18.6361 89.3275C18.6361 89.6821 18.6361 90.0367 18.651 90.3893C18.732 91.8035 19.38 93.137 20.4655 94.1234C21.5511 95.1099 22.9943 95.6766 24.5068 95.7104C24.678 95.7104 24.8513 95.7104 25.0225 95.7104C42.9507 95.7104 60.8809 95.7104 78.8133 95.7104C81.5336 95.7104 83.5219 94.6425 84.6968 92.3586C85.2169 91.3569 85.294 90.251 85.294 89.1532L85.3004 63.4512ZM49.8708 10.7271C49.7432 10.56 49.606 10.3995 49.4599 10.2463C48.4218 9.26058 47.356 8.29894 46.3415 7.29122C45.8343 6.78635 45.4726 6.86249 44.9825 7.31726C43.4479 8.74771 41.862 10.1221 40.3189 11.5525C33.4116 17.9234 26.5086 24.2996 19.6099 30.6812C19.3637 30.9076 19.0919 31.1059 18.8479 31.3323C15.2737 34.634 11.6995 37.9349 8.12533 41.2353C7.72296 41.6079 7.71868 41.9184 8.12533 42.2991C9.11198 43.2427 10.1072 44.1783 11.0296 45.174C11.6546 45.8471 12.0634 45.7169 12.6819 45.1459C17.7778 40.4479 22.9144 35.7879 28.021 31.1019C33.179 26.3698 38.327 21.6284 43.465 16.8776C45.474 15.0264 47.4887 13.18 49.5091 11.3381C49.6717 11.1799 49.8751 11.0496 49.8708 10.7271ZM67.8103 24.6489V27.2533C67.8103 28.1549 67.7846 29.0564 67.8253 29.956C67.9194 31.9814 68.6814 32.6706 70.8216 32.6746C74.3958 32.684 77.9701 32.684 81.5443 32.6746C81.8289 32.6746 82.2355 32.8229 82.3618 32.4743C82.4517 32.2258 82.1606 32.0135 81.9744 31.8332C77.5341 27.5312 73.0896 23.2331 68.6407 18.9391C68.4674 18.7729 68.3047 18.4543 67.9773 18.6266C67.7397 18.7508 67.8146 19.0273 67.8146 19.2497C67.8082 21.0467 67.8103 22.8478 67.8103 24.6489ZM30.5701 16.0021C29.0484 15.6956 27.974 15.8358 27.1457 16.8496C26.8635 17.1743 26.5266 17.4538 26.1483 17.677C25.0525 18.3661 23.7941 17.9975 23.4495 16.8055C23.2076 15.9821 22.7924 16.0462 22.1803 16.3367C19.9737 17.3905 18.7345 19.0593 18.6425 21.3893C18.5826 22.932 18.6254 24.4786 18.6425 26.0232C18.6425 26.2236 18.559 26.482 18.9122 26.6724L30.5701 16.0021ZM32.0211 12.4941C32.9821 12.5382 33.8703 12.8387 34.5894 12.2236C36.2267 10.8032 37.7998 9.32469 39.4264 7.88623C39.8994 7.46952 39.8031 7.15499 39.39 6.76031C38.9769 6.36564 38.673 6.27148 38.2043 6.71023C36.8902 7.93632 35.5204 9.11434 34.2042 10.3304C33.4765 10.9956 32.6803 11.5946 32.0211 12.4941ZM8.30083 47.2555C8.28237 47.1948 8.25345 47.1373 8.21522 47.0852C7.54532 46.4462 6.88612 45.797 6.19268 45.182C5.88449 44.9055 5.70471 45.1459 5.60626 45.4184C5.31233 46.2358 5.02696 47.0559 4.75016 47.8786C4.59392 48.3294 4.78012 48.4796 5.2574 48.3534C6.13918 48.1063 7.02167 47.8566 7.90488 47.6041C8.08038 47.55 8.32009 47.53 8.30083 47.2555ZM51.3904 7.18704C51.7735 7.18704 52.987 6.09918 52.9613 5.78464C52.9399 5.49615 51.3775 4.0657 51.0993 4.07973C50.8211 4.09375 49.5626 5.29781 49.5861 5.56026C49.6097 5.82271 51.1143 7.19506 51.3904 7.19305V7.18704Z" fill="url(#paint0_linear_2_1116)"/>
<path d="M34.3073 65.0458C34.3073 62.213 34.3073 59.3788 34.3073 56.5433C34.3073 55.1309 34.3073 55.1309 32.7428 55.1249C32.3661 55.1249 31.9851 55.1249 31.6085 55.1109C31.2256 55.1064 30.854 54.989 30.5465 54.7753C30.2391 54.5616 30.0115 54.2626 29.8963 53.9208C29.6223 53.1896 29.9412 52.5745 30.5126 52.1017C32.4988 50.4649 34.5106 48.8522 36.5053 47.2294C40.9742 43.6032 45.4558 39.991 49.9054 36.3448C51.5341 35.0105 52.1248 34.9203 53.79 36.2586C58.353 39.9289 62.8839 43.6372 67.4255 47.3296C69.2703 48.8281 71.096 50.3347 72.9644 51.8152C73.7499 52.4343 74.2272 53.1155 73.8612 54.0771C73.5123 54.9947 72.6712 55.1249 71.7552 55.1309C69.2104 55.1489 69.2126 55.1589 69.2126 57.5691C69.2126 62.9115 69.2126 68.258 69.2126 73.6085C69.2126 75.7822 68.3351 76.4954 66.0236 76.279C65.3066 76.2109 64.5811 76.2189 63.8598 76.2169C57.4584 76.1989 51.059 76.1989 44.6597 76.1649C41.9073 76.1488 39.1592 76.0667 36.409 76.0086C34.9708 75.9785 34.318 75.3575 34.3094 73.937C34.2945 70.974 34.3073 68.0089 34.3073 65.0458ZM51.7631 55.1249C47.4998 55.1249 43.2357 55.1249 38.9709 55.1249C38.3138 55.1249 37.8323 55.193 37.8366 55.9884C37.8537 61.268 37.8537 66.5471 37.8366 71.8254C37.8366 72.5046 38.1769 72.6749 38.8403 72.737C40.5525 72.8993 42.2776 72.8111 43.9919 72.8832C44.9315 72.9233 45.2654 72.6328 45.2482 71.7353C45.1969 69.257 45.2225 66.7768 45.2354 64.2986C45.2354 62.776 45.794 62.2551 47.4013 62.2491C50.4276 62.237 53.4539 62.2491 56.4802 62.2491C58.308 62.2491 58.9073 62.806 58.9116 64.4929C58.9201 66.9718 58.9201 69.4507 58.9116 71.9296C58.9116 72.5306 59.0571 72.9073 59.8169 72.9173C61.3622 72.9373 62.9095 72.9794 64.4505 73.0736C65.3944 73.1317 65.7047 72.8131 65.6983 71.9216C65.664 66.7127 65.664 61.4978 65.6983 56.2769C65.6983 55.3853 65.3837 55.1089 64.4484 55.1169C60.2235 55.1469 55.9944 55.1249 51.7631 55.1249ZM67.2992 51.7431C66.67 50.9297 65.8524 50.4409 65.1397 49.8579C60.9255 46.406 56.6921 42.9781 52.4737 39.5322C52.1313 39.2538 51.853 39.1696 51.4956 39.4801C51.2195 39.7205 50.9113 39.9269 50.6245 40.1573C47.1188 43.0008 43.6145 45.8437 40.1116 48.6859C38.9345 49.6415 37.7574 50.6072 36.3748 51.7431H67.2992ZM55.3802 69.253C55.3802 68.3214 55.3609 67.3899 55.3802 66.4603C55.3994 65.8011 55.0976 65.5347 54.3999 65.5447C52.8561 65.5647 51.3123 65.5647 49.7684 65.5447C49.0921 65.5447 48.7475 65.7591 48.754 66.4362C48.7732 68.2994 48.7711 70.1626 48.754 72.0238C48.754 72.6408 49.045 72.8852 49.6892 72.8812C51.2687 72.8672 52.8461 72.8672 54.4256 72.8933C55.1511 72.9053 55.393 72.5847 55.3759 71.9516C55.3673 71.0541 55.3802 70.1506 55.3802 69.255V69.253Z" fill="url(#paint1_linear_2_1116)"/>
<path d="M51.3179 85.4773H33.6716C31.9723 85.4773 31.0199 84.8762 31.0348 83.8023C31.0498 82.7283 31.9937 82.1653 33.7123 82.1653C45.4123 82.1653 57.1087 82.1653 68.8016 82.1653C69.2817 82.1545 69.7617 82.1914 70.2334 82.2755C71.1323 82.4618 71.5796 83.0549 71.5411 83.8924C71.5026 84.7299 70.9911 85.2709 70.0986 85.4212C69.6894 85.4727 69.2762 85.4901 68.8637 85.4733C63.0151 85.4786 57.1665 85.48 51.3179 85.4773Z" fill="url(#paint2_linear_2_1116)"/>
<defs>
<linearGradient id="paint0_linear_2_1116" x1="21.3251" y1="-43.7885" x2="123.893" y2="-4.2105" gradientUnits="userSpaceOnUse">
<stop stop-color="#8CD742"/>
<stop offset="1" stop-color="#27A02D"/>
</linearGradient>
<linearGradient id="paint1_linear_2_1116" x1="40.3835" y1="17.156" x2="88.6663" y2="39.541" gradientUnits="userSpaceOnUse">
<stop stop-color="#8CD742"/>
<stop offset="1" stop-color="#27A02D"/>
</linearGradient>
<linearGradient id="paint2_linear_2_1116" x1="40.7397" y1="80.6967" x2="42.6175" y2="90.5685" gradientUnits="userSpaceOnUse">
<stop stop-color="#8CD742"/>
<stop offset="1" stop-color="#27A02D"/>
</linearGradient>
</defs>
</svg>
