<svg width="84" height="86" viewBox="0 0 84 86" fill="none" xmlns="http://www.w3.org/2000/svg">
<path d="M39.8434 0C41.4115 0.798894 42.824 1.88543 44.0112 3.20598C50.0027 9.38805 56.0023 15.5565 62.0099 21.7112C65.7416 25.5493 65.3736 30.151 61.0979 33.3775C59.0181 34.9456 56.6982 34.7239 54.7344 32.774C53.2585 31.3127 53.2585 31.3127 51.8426 32.774C50.3547 34.297 48.9068 35.8569 47.3749 37.3305C46.5989 38.0735 46.6509 38.562 47.3749 39.3132C51.3746 43.3443 55.3103 47.4165 59.2621 51.4845C59.6714 51.8618 60.034 52.2891 60.342 52.757C60.6175 53.1649 60.7357 53.6632 60.6736 54.1554C60.6115 54.6476 60.3736 55.0987 60.006 55.4211C59.6608 55.8061 59.1866 56.0428 58.6785 56.0839C58.1703 56.125 57.6659 55.9674 57.2662 55.6428C56.8726 55.3265 56.5059 54.9763 56.1702 54.596C52.2825 50.6101 48.3508 46.6611 44.5351 42.6013C43.4312 41.4273 42.8352 41.9076 42.0313 42.8066C41.2273 43.7056 40.3834 44.1858 41.6713 45.4912C49.1188 53.0115 56.5102 60.5865 63.8457 68.2163C64.6457 69.0373 65.1776 69.1604 65.8736 68.2163C66.1166 67.8896 66.4003 67.597 66.7175 67.346C67.5734 66.6687 67.4814 66.0776 66.7175 65.3798C65.9535 64.6819 65.1416 63.8076 64.3777 62.9989C63.1378 61.6853 62.9978 60.5072 63.9417 59.5015C64.8856 58.4957 66.1815 58.5861 67.4774 59.912C70.0373 62.5063 72.5771 65.1294 75.1209 67.7401C77.1207 69.768 79.0526 71.8451 81.0685 73.8196C82.2684 75.0141 83.3203 76.2826 83.9203 77.9245V81.3111C82.6563 84.3119 80.6285 86.1468 77.2528 85.9908C75.4289 85.9087 74.053 84.9892 72.817 83.7125C61.5192 72.0982 50.2134 60.4894 38.8995 48.886C37.5356 47.4821 37.5316 47.4821 36.1517 48.886C34.6678 50.409 33.2039 51.9606 31.688 53.4466C30.9761 54.1486 30.8601 54.6781 31.616 55.4663C34.1278 58.1632 34.4158 60.2075 32.716 62.5391C30.2921 65.8765 26.8244 66.9971 23.8246 65.4126C22.9869 64.9495 22.2244 64.3553 21.5647 63.6516C15.2092 57.1165 8.87765 50.5567 2.47411 44.075C-1.38961 40.1548 -0.285693 35.0974 4.47397 32.1706C6.24984 31.0787 8.37369 31.6329 10.0736 33.32C11.5095 34.7485 11.5135 34.7485 12.9254 33.2954L33.0719 12.6269C33.6279 12.0604 34.2199 11.5801 33.3119 10.7837C29.2162 7.17958 31.152 3.4687 34.8278 0.886674C35.2797 0.570592 35.7677 0.311976 36.2397 0.0246288L39.8434 0ZM49.8427 27.9138C49.6579 27.6471 49.4576 27.3921 49.2428 27.1502C45.507 23.2998 41.7473 19.4698 38.0436 15.5989C37.3196 14.8436 36.8437 15.0036 36.2037 15.6728C29.3322 22.7579 22.4433 29.8267 15.5372 36.879C14.8212 37.6097 14.7372 38.1105 15.4972 38.8822C19.2302 42.6588 22.942 46.4627 26.6324 50.294C27.2883 50.9795 27.7723 51.0863 28.4842 50.3515C35.3904 43.2362 42.3086 36.121 49.2388 29.0057C49.5027 28.7183 49.8507 28.4679 49.8427 27.8973V27.9138ZM26.6044 61.5375C27.1073 61.5165 27.5963 61.3616 28.0233 61.0882C28.4503 60.8147 28.8007 60.432 29.0402 59.9776C29.5882 59.0499 28.5962 58.6271 28.1243 58.1345C24.1566 54.0295 20.1608 49.9246 16.1731 45.8196C13.3133 42.8887 10.4615 39.9454 7.58573 37.0268C7.18576 36.6163 6.8938 35.9513 6.10586 36.3905C4.41398 37.3346 4.078 39.1737 5.4579 40.5981C11.9748 47.3138 18.5076 54.0186 25.0565 60.7124C25.2448 60.9512 25.4799 61.1466 25.7465 61.2859C26.0132 61.4252 26.3055 61.5054 26.6044 61.5211V61.5375ZM60.174 27.3801C60.174 26.3457 59.674 25.7751 59.138 25.225C52.7172 18.6324 46.295 12.0399 39.8714 5.44728C39.6644 5.22426 39.4382 5.02093 39.1955 4.83976C38.1076 4.09265 37.0996 4.42925 35.9557 5.71821C34.9798 6.82245 36.0317 7.26989 36.5557 7.80764C43.3152 14.7779 50.092 21.7317 56.8862 28.6691C57.3422 29.137 57.7382 30.0566 58.5621 29.6255C58.9909 29.413 59.3621 29.0956 59.6432 28.7012C59.9243 28.3068 60.1066 27.8474 60.174 27.3637V27.3801ZM79.6686 79.5665C79.6686 78.7209 79.1446 78.1626 78.6087 77.6126C76.6088 75.5601 74.6089 73.4707 72.5851 71.4305C70.6292 69.4642 71.2132 69.2713 68.9853 71.5126C68.9537 71.5512 68.9189 71.5869 68.8813 71.6193C68.1494 72.2063 68.2374 72.7276 68.8813 73.3639C70.2892 74.7391 71.6372 76.1799 73.0131 77.5879C74.105 78.7045 75.1889 79.8375 76.3088 80.9294C76.6026 81.2511 76.9919 81.4638 77.416 81.5343C77.84 81.6049 78.2749 81.5293 78.6527 81.3193C78.977 81.1652 79.248 80.9134 79.4295 80.5973C79.6109 80.2813 79.6943 79.916 79.6686 79.5501V79.5665Z" fill="url(#paint0_linear_2_1125)"/>
<defs>
<linearGradient id="paint0_linear_2_1125" x1="20.2092" y1="-38.0385" x2="114.803" y2="1.62029" gradientUnits="userSpaceOnUse">
<stop stop-color="#8CD742"/>
<stop offset="1" stop-color="#27A02D"/>
</linearGradient>
</defs>
</svg>
