<svg width="81" height="79" viewBox="0 0 81 79" fill="none" xmlns="http://www.w3.org/2000/svg">
<path d="M16.8742 8.77931C16.7004 7.12033 20.4562 5.41386 23.7261 4.00816C26.6934 2.74176 29.0461 1.72231 32.7376 0.956138C42.3961 -1.2274 52.5391 0.361621 61.0303 5.38853C64.3089 7.27437 67.3149 9.58512 69.9677 12.2587C71.8988 14.1932 74.7953 17.1597 77.1029 21.8707C78.8859 25.5179 79.5167 28.5794 80.0509 31.1787C80.7167 34.3431 81.034 37.5689 80.9971 40.8002C80.9473 43.4638 80.6238 46.1156 80.0316 48.7152C79.0829 52.5969 77.5143 56.3061 75.3843 59.7043C69.6154 68.7055 60.5705 75.2001 50.0975 77.8613C44.0934 79.3264 37.8229 79.3784 31.7946 78.0133C27.4347 76.9207 23.292 75.1164 19.539 72.6754C16.4498 70.6453 13.6377 68.2343 11.1712 65.5013C8.19309 62.2211 5.73553 58.5173 3.88159 54.5153C2.21176 50.98 1.06302 47.2285 0.470101 43.3741C0.193321 41.446 -0.817242 34.351 1.40344 33.4551C1.95056 33.2366 2.28205 33.6102 6.33077 35.8042C9.38501 37.4569 9.72615 37.536 10.1445 38.1819C11.1101 39.6573 9.91927 40.1638 10.5179 43.9915C10.8294 45.8989 11.3954 47.7576 12.2011 49.5193C12.2236 49.5668 12.2397 49.6048 12.2558 49.6333C13.4981 52.2706 14.8916 53.9961 16.4397 55.8925C17.8976 57.6718 19.4231 59.5492 21.8691 61.5374C24.6875 63.8397 27.8884 65.6465 31.3311 66.8785C34.9613 68.1498 38.8068 68.7195 42.6566 68.5565C46.8185 68.3027 50.8833 67.2123 54.6 65.3525C56.7627 64.2824 60.4188 62.4303 63.7531 58.4854C67.142 54.471 68.3135 50.4755 69.028 47.9553C70.3006 43.4877 70.5674 38.8008 69.81 34.2212C68.7246 27.403 65.1333 21.2137 59.7172 16.8273C57.8521 15.2596 55.7985 13.923 53.6023 12.8476C50.7987 11.4928 47.7804 10.6191 44.6777 10.2642C41.5027 9.95654 38.2974 10.215 35.2157 11.0272C33.2193 11.5142 31.2783 12.1995 29.4226 13.0724C26.8286 14.8295 25.1647 14.7282 24.2732 14.4749C23.105 14.1583 22.9376 13.4998 20.5656 11.6667C17.8461 9.58665 16.9579 9.56448 16.8742 8.77931Z" fill="url(#paint0_linear_23_2)"/>
<path d="M10.1319 16.3618L41.2408 37.5202L55.8876 28.1488V39.5306L41.2408 49.2058L3.86255 23.0104L10.1319 16.3618Z" fill="url(#paint1_linear_23_2)"/>
<defs>
<linearGradient id="paint0_linear_23_2" x1="23.4745" y1="-1.19325e-05" x2="81.8098" y2="9.35737" gradientUnits="userSpaceOnUse">
<stop stop-color="#E6DD07"/>
<stop offset="1" stop-color="#FFC93F"/>
</linearGradient>
<linearGradient id="paint1_linear_23_2" x1="18.9399" y1="16.3618" x2="55.1482" y2="25.3347" gradientUnits="userSpaceOnUse">
<stop stop-color="#E6DD07"/>
<stop offset="1" stop-color="#FFC93F"/>
</linearGradient>
</defs>
</svg>
