<svg width="73" height="73" viewBox="0 0 73 73" fill="none" xmlns="http://www.w3.org/2000/svg">
<path d="M38.4436 29.9235C38.9805 29.957 39.6231 30.1741 40.2426 30.4182C43.1255 31.5501 45.0434 33.3994 45.8984 36.0024C46.2164 36.9713 45.6189 37.7445 44.4679 37.9281C43.6493 38.0594 42.8174 37.6318 42.5324 36.8967C42.2826 36.2446 42.0087 35.6092 41.5289 35.0512C40.62 33.9984 39.4493 33.2615 37.9561 32.8972C36.771 32.6075 36.2308 31.7793 36.6192 30.8812C36.8789 30.2803 37.505 29.9235 38.4436 29.9235Z" fill="url(#paint0_linear_2_1139)"/>
<path d="M54.7273 40.2289C54.7862 40.8454 54.6837 41.5208 54.0124 41.989C53.7584 42.1801 53.4528 42.2964 53.1321 42.324C52.8115 42.3516 52.4893 42.2894 52.2044 42.1447C51.9166 42.0209 51.6723 41.8191 51.5011 41.5638C51.3299 41.3085 51.2391 41.0107 51.2399 40.7065C51.1581 38.7244 50.8933 36.7769 50.1086 34.92C49.3843 33.1767 48.3374 31.5753 47.0189 30.194C44.6725 27.751 41.8106 26.2297 38.442 25.5648C37.4164 25.3628 36.3713 25.3207 35.3338 25.2649C34.2962 25.2092 33.5671 24.5211 33.5748 23.5584C33.5824 22.6115 34.3453 21.8887 35.3773 21.8951C40.3361 21.9245 44.6911 23.4932 48.3758 26.7179C51.7673 29.6858 53.801 33.3682 54.5104 37.7291C54.6546 38.5551 54.7272 39.3912 54.7273 40.2289Z" fill="url(#paint1_linear_2_1139)"/>
<path d="M50.8906 72.9841C49.4213 72.7307 47.9342 72.5879 46.4684 72.2971C43.1906 71.6476 40.0413 70.5823 36.9741 69.2923C35.3352 68.6017 34.4101 67.6047 35.0457 66.0755C35.6687 64.5856 37.0651 65.3993 38.6951 66.0755C42.2211 67.5369 45.8408 68.8408 49.6435 69.2923C54.155 69.8276 58.7467 70.5383 62.7815 68.265C63.8878 67.6562 66.431 66.0755 67.5258 64.9808C70.4454 62.0614 70.4454 56.5877 68.3528 54.5607C66.1622 51.9965 63.4758 49.1448 60.3194 47.8297C57.8967 46.8197 53.8077 46.056 51.8332 47.8297C49.905 49.5623 47.0889 51.4113 46.0865 53.3034C44.6922 54.6613 43.8983 55.9899 42.1826 55.128C38.4335 53.242 37.2586 51.9766 34.0433 49.2894C29.6387 45.6293 26.1307 41.489 22.73 36.8822C21.0553 34.6036 19.2354 32.5004 17.9857 29.9487C17.2144 28.3714 19.3227 27.1908 20.5403 25.9346C22.3578 24.0611 23.1522 23.116 24.9196 21.1907C26.9192 19.012 26.1372 15.3956 24.9196 12.7976C23.6324 10.0497 20.5403 4.98366 17.1785 3.51397C12.5378 1.48516 8.88438 3.75869 6.67237 6.59403C4.54606 9.32051 3.32107 14.493 3.02292 17.9065C2.48732 23.9733 3.84905 29.9588 6.30743 35.4225C8.76581 40.8862 13.1776 45.671 17.1785 50.1123C19.7155 52.9262 22.6005 55.6938 25.557 58.0474C26.655 58.9199 26.6519 58.7772 27.3818 59.507C27.869 59.9942 27.9088 60.9994 27.3818 61.3316C27.3818 61.3316 26.1779 62.3564 25.557 62.3047C24.8857 62.2583 24.6115 62.0998 24.0973 61.6965C20.5981 58.9996 17.094 55.8192 14.1774 52.5015C10.2122 47.9657 6.87547 43.0302 4.31889 37.5754C2.07475 32.788 0.569721 27.79 0.125177 22.4959C-0.287231 17.6781 0.282283 12.9996 2.38896 8.61364C3.76901 5.74262 5.53112 3.08216 8.41084 1.48516C13.0366 -1.07181 18.0944 -0.283128 21.7739 3.51397C23.8074 5.61236 25.7016 7.84102 27.1299 10.4212C28.7081 13.2869 29.5633 16.2935 28.8152 19.5874C28.3421 21.6715 27.312 23.4666 25.9266 25.0743C24.6536 26.5517 23.2486 27.8971 21.8561 29.2621C21.4579 29.6529 21.4294 29.967 21.715 30.4309C23.7566 33.7764 26.1119 36.9203 28.7492 39.8201C32.2917 43.7294 35.8566 47.2827 40.2474 50.2086C40.8811 50.6279 41.5506 50.9902 42.1826 51.4113C42.62 51.7039 43.3709 51.5326 43.7405 51.1686C45.0562 49.866 46.3381 48.5313 47.7163 47.2876C51.7887 43.6172 56.6733 42.916 61.6418 45.3659C64.1413 46.5953 66.2836 48.2994 68.3528 50.1372C69.8007 51.4273 71.1433 52.7781 71.986 54.5607C72.468 55.5777 72.684 56.6733 73 57.7404V60.5953C72.9411 60.8237 72.875 61.0503 72.8215 61.2805C72.4471 63.3 71.4816 65.163 70.0471 66.6336C67.1352 69.5849 64.0823 71.1499 59.5798 72.3203C58.1077 72.7029 57.0071 72.6772 55.7449 73.0001L50.8906 72.9841Z" fill="url(#paint2_linear_2_1139)"/>
<defs>
<linearGradient id="paint0_linear_2_1139" x1="38.7679" y1="26.3725" x2="48.7749" y2="31.4624" gradientUnits="userSpaceOnUse">
<stop stop-color="#8CD742"/>
<stop offset="1" stop-color="#27A02D"/>
</linearGradient>
<linearGradient id="paint1_linear_2_1139" x1="38.6458" y1="12.8563" x2="62.0868" y2="23.305" gradientUnits="userSpaceOnUse">
<stop stop-color="#8CD742"/>
<stop offset="1" stop-color="#27A02D"/>
</linearGradient>
<linearGradient id="paint2_linear_2_1139" x1="17.4892" y1="-32.2883" x2="99.2529" y2="2.89801" gradientUnits="userSpaceOnUse">
<stop stop-color="#8CD742"/>
<stop offset="1" stop-color="#27A02D"/>
</linearGradient>
</defs>
</svg>
