<svg width="73" height="73" viewBox="0 0 73 73" fill="none" xmlns="http://www.w3.org/2000/svg">
<path d="M47.3041 55.0315C47.4119 55.9176 47.6805 56.7018 47.8923 57.4958C48.1962 58.6328 48.5256 59.7621 48.8177 60.9011C48.8565 61.0922 48.9428 61.2704 49.0685 61.4194C49.1942 61.5685 49.3554 61.6835 49.5373 61.7539C51.6234 62.6478 53.7742 63.2909 56.0544 63.4124C57.7621 63.5026 57.77 63.5261 57.719 65.2356C57.7033 65.7905 57.4778 65.9532 56.9602 65.9453C55.6127 65.9183 54.2716 65.7514 52.9586 65.4474C51.9968 65.2548 51.0525 64.9833 50.1353 64.6357C49.6412 64.4397 49.502 64.5808 49.4628 65.0886C49.1432 69.1193 46.3532 72.1913 42.381 72.901C41.922 72.9739 41.4575 73.0067 40.9928 72.999C30.161 72.999 19.3291 72.999 8.4973 72.999C2.81147 72.999 -1.1745 67.6784 0.313622 62.1773C1.3057 58.5152 2.47032 54.8942 3.03302 51.1243C3.33489 49.0157 3.50579 46.8904 3.54474 44.7607C3.7408 36.2366 7.6856 29.9965 15.0987 25.8933C15.6242 25.6012 15.834 25.4659 15.2556 24.9562C14.6668 24.4427 14.276 23.7396 14.1507 22.9685C14.0254 22.1975 14.1735 21.4068 14.5694 20.7334C14.8498 20.2295 14.736 19.9649 14.3733 19.61C12.1264 17.3849 9.90504 15.1363 7.65423 12.917C7.45565 12.7391 7.29967 12.5188 7.19784 12.2725C7.09602 12.0261 7.05097 11.7599 7.06604 11.4938C7.09937 10.2704 7.09153 9.04319 7.06604 7.8179C7.06604 7.28858 7.2621 7.07096 7.79735 7.07685C9.51095 7.09645 11.2285 7.10625 12.9421 7.07685C13.5871 7.06508 13.9067 7.49835 14.2714 7.87671C14.636 8.25508 14.8243 8.2296 15.0144 7.71204C15.6791 5.90646 15.6928 5.91038 17.6515 5.91038H21.4002C22.3609 5.91038 22.3629 5.91038 22.3649 4.91447C22.3649 3.54215 22.3845 2.16983 22.3649 0.797514C22.355 0.227023 22.5609 0.0329379 23.1373 0.0133333C25.3038 -0.0337175 25.3038 -0.0494 26.6234 1.69932C27.141 2.38352 27.6644 3.07164 28.1624 3.75976C28.435 4.14009 28.7055 4.18126 29.0879 3.91464C29.8113 3.4108 30.5603 2.94422 31.2838 2.43842C31.623 2.19924 31.9033 2.14631 32.2759 2.40117C33.6307 3.33042 34.9992 4.23811 36.3716 5.1458C36.752 5.39478 36.8677 5.66336 36.6167 6.05741C36.5798 6.12057 36.5471 6.18606 36.5187 6.25346C35.7834 7.7532 35.7834 7.7532 37.3029 8.51386C38.0264 8.87654 38.744 9.25099 39.4753 9.59407C39.8772 9.79012 40.1007 10.0509 40.0517 10.5057C40.0498 10.5305 40.0498 10.5554 40.0517 10.5802C40.1262 13.4307 40.1262 13.4307 38.0911 15.4676C36.8794 16.6811 35.6736 17.9025 34.4482 19.1023C34.1267 19.4159 34.0777 19.6159 34.3992 20.0041C35.8226 21.7175 35.707 23.5329 34.0836 25.1012C33.564 25.5992 34.0032 25.6894 34.3188 25.8482C37.5245 27.4499 40.1007 29.7691 42.1614 32.6843C42.7906 33.5904 43.3472 34.5449 43.8259 35.5387C44.173 36.2464 44.1965 36.2523 44.6102 35.574C46.5278 32.4238 49.5234 30.0763 53.0409 28.9673C61.8893 26.0874 71.4297 31.9824 72.8217 41.1848C74.1452 49.9441 67.9515 58.0114 59.1738 58.8485C54.9643 59.2406 51.1724 58.08 47.8903 55.3667C47.7766 55.2726 47.6629 55.1824 47.5413 55.0981C47.5237 55.0609 47.4688 55.0648 47.3041 55.0315ZM45.8728 59.4837C45.7709 59.0916 45.7042 58.8034 45.6258 58.527C45.035 56.5047 44.552 54.4525 44.1789 52.379C44.0259 51.4654 43.9985 50.5303 43.622 49.654C42.3266 46.7147 42.0117 43.4366 42.7241 40.3046C42.806 39.9715 42.7952 39.6223 42.6927 39.2949C41.4203 35.2623 39.1263 31.9511 35.6697 29.4927C31.9151 26.8265 27.7331 25.6521 23.1217 26.0658C18.0123 26.5226 13.7969 28.7261 10.4638 32.5921C7.32681 36.2209 5.94064 40.4967 5.95437 45.2528C5.94353 47.8008 5.70269 50.3428 5.23481 52.8475C4.64662 56.1333 3.60748 59.3053 2.77618 62.5302C2.55658 63.383 2.33699 64.2417 2.47619 65.1396C3.00556 68.5214 5.36813 70.5661 8.80316 70.5896C10.7873 70.6014 12.7734 70.5896 14.7576 70.5896C23.3844 70.5896 32.0112 70.5896 40.638 70.5896C44.2102 70.5896 46.6257 68.4331 47.0375 64.9043C47.1492 63.9378 46.9767 63.1595 45.967 62.5851C43.7534 61.3304 41.8928 59.6189 40.2988 57.633C37.8174 54.5992 36.1927 50.9569 35.5933 47.0838C35.5638 46.8878 35.5795 46.6505 35.3756 46.5721C35.1717 46.4937 35.0874 46.7172 34.9678 46.8289C33.7052 47.9915 33.7071 47.9935 32.519 46.7133C32.5028 46.6942 32.4851 46.6765 32.466 46.6604C32.1367 46.3918 32.1955 46.1546 32.4798 45.8762C33.6849 44.6908 34.8809 43.4955 36.0677 42.2905C36.3657 41.9886 36.601 41.9357 36.9245 42.265C38.1264 43.4864 39.3479 44.6921 40.5576 45.9075C40.7125 46.0624 40.9262 46.2408 40.7183 46.4663C40.2713 46.9505 39.8812 47.5524 39.2832 47.8092C38.8773 47.9817 38.695 47.3073 38.3028 47.1583C38.2832 47.1583 38.2558 47.1583 38.2323 47.1583C37.7754 50.0206 42.3692 57.5252 45.8728 59.4837ZM70.6003 43.5746C70.6003 36.517 64.7282 30.6356 57.6602 30.6552C50.6352 30.665 44.7906 36.513 44.769 43.553C44.7474 50.593 50.6509 56.492 57.7092 56.4803C64.7302 56.4763 70.5964 50.6028 70.6003 43.5746ZM24.9372 3.50686L24.7686 3.55784V4.27928C24.7686 7.07097 24.7686 9.86461 24.7686 12.6563C24.7686 14.3227 24.9647 14.156 23.2236 14.1933C22.5923 14.207 22.3472 13.9972 22.3629 13.3523C22.4002 11.9329 22.3511 10.5116 22.3845 9.09023C22.4002 8.47465 22.1688 8.27468 21.5688 8.29233C20.4434 8.32566 19.3161 8.33154 18.1907 8.29233C17.5848 8.27076 17.3103 8.51582 17.1457 9.07651C16.8457 10.0842 16.4928 11.0781 16.1555 12.076C15.8908 12.8602 15.8595 12.8602 15.2929 12.3054C14.4929 11.5107 13.6963 10.7135 12.9028 9.91362C12.6735 9.68425 12.4421 9.48232 12.0853 9.48821C11.399 9.49801 10.7128 9.48821 10.0266 9.48821C9.80112 9.48821 9.53056 9.51369 9.5188 9.79404C9.48742 10.4822 9.32273 11.1664 9.93641 11.778C12.1617 13.9502 14.3459 16.1675 16.5477 18.3651C16.6441 18.4761 16.7519 18.5766 16.8692 18.6651C17.0888 18.8016 17.339 18.8811 17.5972 18.8965C17.8553 18.9119 18.1132 18.8627 18.3475 18.7533C18.7553 18.5749 18.522 18.1005 18.473 17.7535C18.2769 16.3223 18.0279 14.8991 17.8672 13.464C17.6966 11.9545 17.2594 11.9839 19.169 11.727C19.9984 11.6173 20.0886 11.678 20.2042 12.5112C20.4572 14.3286 20.7336 16.1439 20.965 17.9632C21.0454 18.6102 21.2904 18.9003 21.9904 18.8631C23.0903 18.8062 24.1961 18.8298 25.298 18.8631C25.8077 18.8749 26.0371 18.718 26.0979 18.175C26.3273 16.1341 26.6096 14.0972 26.8606 12.0564C27.1116 10.0156 26.9978 10.5272 28.7957 10.6508C29.329 10.688 29.4937 10.9703 29.4231 11.4938C29.1682 13.4091 28.9447 15.3304 28.7016 17.2477C28.5056 18.8572 28.4899 18.869 30.0898 18.8494C30.5642 18.8494 31.1034 19.0238 31.4994 18.6318C33.4836 16.6713 35.4658 14.6991 37.4206 12.7053C37.9225 12.1936 37.7499 11.4506 37.1206 11.1213C36.4912 10.7919 35.8422 10.4998 35.2188 10.1606C34.8149 9.93911 34.6031 10.0509 34.4345 10.4449C34.1816 11.0036 33.8993 11.5486 33.615 12.0897C32.7052 13.8169 33.2228 13.713 31.321 12.8269C30.8034 12.5838 30.8015 12.2975 31.0407 11.8466C31.7177 10.5397 32.3758 9.2255 33.015 7.90416C33.8914 6.08682 34.0502 6.61222 32.3425 5.40262C32.1983 5.27203 32.0107 5.1997 31.8161 5.1997C31.6215 5.1997 31.4339 5.27203 31.2897 5.40262C30.4289 6.01036 29.5251 6.55537 28.6722 7.16703C28.186 7.51795 27.888 7.47482 27.537 6.97098C26.69 5.79667 25.8018 4.65961 24.9372 3.50686ZM24.8215 21.2431H18.2809C17.1966 21.2431 16.5477 21.6901 16.5614 22.4194C16.5751 23.1486 17.2143 23.5545 18.326 23.5545H30.376C30.7681 23.5545 31.1603 23.5643 31.5524 23.5545C32.3464 23.529 32.9248 23.0506 32.9425 22.4252C32.9601 21.7998 32.3543 21.2823 31.519 21.249C31.323 21.249 31.1269 21.249 30.9309 21.249L24.8215 21.2431Z" fill="url(#paint0_linear_2_1153)"/>
<path d="M57.4987 54.3146C53.3627 54.139 50.1555 52.3399 48.2063 48.6364C46.3175 45.044 46.5628 41.4498 48.6814 37.9921C49.1683 37.196 49.2033 37.2116 49.9413 37.7638C51.0727 38.6223 51.0727 38.6224 50.4165 39.8068C47.6572 44.7923 50.8429 51.0677 56.453 51.7877C58.4007 52.0446 60.3753 51.585 62.0105 50.494C62.4487 50.213 62.6609 50.2637 62.953 50.6579C64.0766 52.1857 64.4485 51.9321 62.472 53.0482C60.9546 53.9021 59.2389 54.339 57.4987 54.3146Z" fill="url(#paint1_linear_2_1153)"/>
<path d="M57.6284 33.0241C61.6538 33.2036 64.8229 34.9011 66.8052 38.4619C68.8287 42.0989 68.643 45.7495 66.4944 49.3006C65.9802 50.1493 65.949 50.1396 65.1865 49.562C64.08 48.7269 64.08 48.7269 64.7193 47.5094C67.2608 42.653 64.7603 37.0239 59.4407 35.6893C57.2178 35.1332 55.1162 35.5508 53.1964 36.7703C52.7076 37.0825 52.4574 37.102 52.0781 36.6181C50.9422 35.1703 50.9266 35.1879 52.5629 34.3118C54.1137 33.4585 55.8575 33.0152 57.6284 33.0241Z" fill="url(#paint2_linear_2_1153)"/>
<path d="M57.4454 50.8059C56.7728 50.9205 56.208 50.7782 56.3258 49.7957C56.3685 49.4359 56.0434 49.3074 55.7813 49.1552C55.3483 48.9174 54.9688 48.5975 54.6651 48.2145C54.3615 47.8315 54.1399 47.3931 54.0136 46.9252C53.8104 46.1938 53.9343 46.0317 54.6943 46.0139C55.0498 46.0139 55.4054 46.0139 55.761 46.0139C55.9121 45.9941 56.0657 46.0218 56.1995 46.0929C56.3333 46.164 56.4402 46.2749 56.5046 46.4093C56.7993 46.9529 57.2341 47.3404 57.9168 47.1012C58.4633 46.9035 58.8372 46.4982 58.7295 45.9151C58.6015 45.2093 58.0631 44.9266 57.3479 44.8772C55.8138 44.7606 54.7064 43.9975 54.1578 42.6038C53.6235 41.2733 53.8693 40.0338 54.8345 38.9406C55.0249 38.7081 55.2577 38.5118 55.5212 38.3614C56.0881 38.0747 56.4701 37.7169 56.3584 37.0369C56.3411 36.9632 56.3542 36.8858 56.3949 36.8214C56.9659 36.256 57.6811 36.6237 58.3292 36.5545C58.7356 36.511 58.8636 36.8076 58.823 37.1377C58.7519 37.7308 59.0749 38.0154 59.5565 38.2942C59.9719 38.5369 60.3319 38.8597 60.6143 39.2429C60.8966 39.626 61.0953 40.0614 61.1982 40.5221C61.3282 41.0322 61.2185 41.3524 60.5886 41.3267C60.2067 41.3129 59.8267 41.3267 59.4447 41.3267C59.282 41.347 59.117 41.3163 58.9734 41.2392C58.8298 41.1621 58.7152 41.0425 58.6462 40.8977C58.3455 40.3541 57.8944 39.9903 57.2239 40.2533C56.9777 40.3285 56.7655 40.4836 56.6224 40.6925C56.4793 40.9015 56.4141 41.1518 56.4376 41.4018C56.4803 41.9811 57.0289 42.3903 57.7989 42.4634C59.9974 42.6611 61.4298 44.2723 61.2531 46.3796C61.1535 47.6013 60.481 48.4969 59.4244 49.1472C59.1704 49.3034 58.8961 49.4062 58.827 49.7621C58.6462 50.8078 58.632 50.8059 57.4454 50.8059Z" fill="url(#paint3_linear_2_1153)"/>
<defs>
<linearGradient id="paint0_linear_2_1153" x1="17.4892" y1="-32.2883" x2="99.2529" y2="2.89801" gradientUnits="userSpaceOnUse">
<stop stop-color="#8CD742"/>
<stop offset="1" stop-color="#27A02D"/>
</linearGradient>
<linearGradient id="paint1_linear_2_1153" x1="50.989" y1="29.8736" x2="69.9698" y2="38.0419" gradientUnits="userSpaceOnUse">
<stop stop-color="#8CD742"/>
<stop offset="1" stop-color="#27A02D"/>
</linearGradient>
<linearGradient id="paint2_linear_2_1153" x1="55.3334" y1="25.5284" x2="74.3143" y2="33.6966" gradientUnits="userSpaceOnUse">
<stop stop-color="#8CD742"/>
<stop offset="1" stop-color="#27A02D"/>
</linearGradient>
<linearGradient id="paint3_linear_2_1153" x1="55.6506" y1="30.1577" x2="64.9972" y2="32.2298" gradientUnits="userSpaceOnUse">
<stop stop-color="#8CD742"/>
<stop offset="1" stop-color="#27A02D"/>
</linearGradient>
</defs>
</svg>
