<svg width="73" height="73" viewBox="0 0 73 73" fill="none" xmlns="http://www.w3.org/2000/svg">
<path d="M4.77871 25.8828C3.98668 28.5848 3.42428 31.3489 3.09751 34.1457C2.76365 36.0582 2.73421 38.0116 3.01037 39.9333C3.53302 42.7399 5.05744 45.0061 6.66896 47.2549C9.16029 50.7413 11.5907 54.2278 14.0471 57.7143C14.1821 57.8944 14.3044 58.0837 14.413 58.2809C14.6156 58.5724 14.6945 58.9323 14.6325 59.2819C14.5704 59.6315 14.3725 59.9423 14.082 60.1462C13.9457 60.2614 13.7864 60.3462 13.6148 60.3949C13.4432 60.4437 13.2632 60.4552 13.0868 60.4288C12.9104 60.4024 12.7416 60.3387 12.5917 60.2418C12.4419 60.145 12.3144 60.0173 12.2178 59.8672C11.4687 58.9259 10.7892 57.9235 10.1011 56.9212C7.48779 53.0599 4.5348 49.3555 2.10445 45.3373C0.351962 42.3181 -0.335254 38.797 0.153215 35.3398C0.788402 29.4755 2.07989 23.7012 4.00343 18.1254C4.17269 17.4443 4.20819 16.7368 4.10795 16.0422C4.04698 14.2466 4.10795 12.4424 3.94244 10.6469C3.79436 9.29586 4.31701 8.82518 5.68463 8.81646C5.76831 8.80324 5.85354 8.80324 5.93722 8.81646C7.4355 9.22612 8.18466 8.52882 8.78571 7.20396C9.81987 5.09999 10.9836 3.0623 12.2701 1.10262C12.4483 0.751106 12.7257 0.45966 13.068 0.264435C13.4102 0.0692095 13.8021 -0.0212169 14.1952 0.00436949C15.0162 -0.01128 15.8256 0.200171 16.5341 0.615418C17.2427 1.03067 17.823 1.6336 18.2109 2.35775C18.6549 3.05107 18.8908 3.85722 18.8908 4.68063C18.8908 5.50404 18.6549 6.31016 18.2109 7.00348C16.4687 9.83624 15.075 12.8521 13.5767 15.8069C13.4533 16.0261 13.3751 16.2679 13.3467 16.5179C13.3182 16.7679 13.3402 17.0211 13.4112 17.2625C14.4565 21.115 15.4495 24.985 16.5036 28.8289C17.2266 31.4437 18.9078 33.5182 20.7284 35.4444C23.574 38.3769 25.8957 41.7762 27.5926 45.4942C28.4824 47.4441 28.9343 49.5654 28.9166 51.7089C28.9166 53.0599 28.9166 54.4109 28.9166 55.7619C28.951 55.9664 28.9401 56.176 28.8849 56.3759C28.8296 56.5758 28.7313 56.7613 28.5968 56.9191C28.4623 57.0769 28.295 57.2034 28.1064 57.2896C27.9179 57.3758 27.7127 57.4196 27.5055 57.418C24.7702 57.8974 22.0263 58.3593 19.2824 58.8213C19.0924 58.8721 18.8942 58.8843 18.6995 58.8571C18.5047 58.83 18.3174 58.7642 18.1485 58.6634C17.9796 58.5627 17.8326 58.4291 17.7162 58.2706C17.5997 58.1121 17.5162 57.9318 17.4705 57.7405C17.4385 57.5451 17.4477 57.3451 17.4974 57.1534C17.5472 56.9618 17.6365 56.7826 17.7595 56.6275C17.8826 56.4724 18.0366 56.3447 18.2119 56.2527C18.3871 56.1606 18.5797 56.1063 18.7772 56.0931C20.8765 55.7096 22.9845 55.3261 25.0926 55.021C25.9637 54.899 26.1466 54.5591 26.2075 53.7223C26.6082 48.3008 24.1431 43.9863 20.981 39.9507C19.7353 38.3643 18.3154 36.9175 17.0001 35.3747C15.207 33.1612 13.9569 30.5581 13.3502 27.7742C12.2614 23.4161 11.0418 19.058 9.86586 14.6476C9.726 14.0415 9.44806 13.476 9.05367 12.9952C8.65928 12.5144 8.15913 12.1313 7.59232 11.8758C7.04353 11.6143 6.7909 11.7625 6.81703 12.364C7.12192 18.2648 6.61672 24.2528 8.64636 29.9794C8.73573 30.2632 8.79697 30.5551 8.82925 30.851C8.90164 31.1999 8.83333 31.5633 8.63918 31.8621C8.44503 32.1608 8.14075 32.3707 7.79265 32.4461C7.44313 32.5197 7.0787 32.4545 6.77636 32.2642C6.47402 32.0739 6.25746 31.7734 6.17243 31.4263C5.69624 29.869 5.28976 28.2914 4.95294 26.6934C4.87454 26.4319 4.87453 26.1617 4.77871 25.8828ZM16.1029 4.49321C16.1029 4.53679 16.1029 4.39734 16.1029 4.25788C16.0573 3.95003 15.9237 3.66196 15.7181 3.42842C15.5125 3.19488 15.2438 3.02584 14.9443 2.94172C14.2997 2.7674 14.1865 3.42111 13.96 3.81334C12.9321 5.44327 12 7.14294 11.0592 8.83388C10.5105 9.80138 10.1882 10.6381 11.2945 11.4487C11.48 11.6215 11.6257 11.8327 11.7213 12.0676C11.9913 12.5557 12.2091 12.5383 12.4443 12.0676C13.4896 9.88853 14.683 7.79667 15.9287 5.71349C16.1099 5.33384 16.1619 4.90523 16.0767 4.49321H16.1029Z" fill="url(#paint0_linear_2_1145)"/>
<path d="M16.4596 72.9851C15.5997 72.99 14.7697 72.6693 14.1364 72.0873C13.503 71.5053 13.1131 70.7051 13.0449 69.8473C12.8533 68.7142 12.6791 67.5724 12.47 66.4393C12.3573 65.9646 12.3455 65.4715 12.4353 64.992C12.525 64.5124 12.7144 64.0571 12.9911 63.6553C13.2678 63.2536 13.6257 62.9145 14.0416 62.6598C14.4575 62.4052 14.9222 62.2407 15.4056 62.177L27.688 60.0852C28.145 60.003 28.6138 60.013 29.0669 60.1146C29.52 60.2163 29.9482 60.4075 30.3264 60.6771C30.7045 60.9467 31.0251 61.2892 31.2691 61.6845C31.5131 62.0798 31.6756 62.5199 31.7473 62.979C31.9825 64.2515 32.2002 65.5241 32.4093 66.7967C32.4936 67.256 32.4833 67.7277 32.3791 68.1829C32.275 68.6382 32.0791 69.0674 31.8036 69.4443C31.528 69.8212 31.1784 70.1379 30.7763 70.3751C30.3742 70.6122 29.928 70.7648 29.465 70.8235C25.9806 71.4685 22.444 72.0438 18.9335 72.6365C18.1229 72.8366 17.294 72.9535 16.4596 72.9851ZM29.6044 67.1278C29.4128 66.0209 29.2124 64.9139 29.0382 63.807C28.9249 63.0399 28.5417 62.7523 27.7577 62.9353C26.5469 63.1707 25.3186 63.3537 24.0991 63.5629L16.1983 64.8965C15.6234 64.9924 15.1269 65.1842 15.2401 65.9076C15.4405 67.1279 15.6495 68.3394 15.876 69.551C15.8848 69.6581 15.9179 69.7618 15.9728 69.8542C16.0277 69.9466 16.103 70.0252 16.1929 70.0841C16.2828 70.1429 16.385 70.1804 16.4916 70.1938C16.5982 70.2071 16.7064 70.196 16.8081 70.1611C20.7861 69.4638 24.7698 68.7781 28.7594 68.1041C29.3605 67.9995 29.6392 67.7292 29.6044 67.1278Z" fill="url(#paint1_linear_2_1145)"/>
<path d="M68.2726 25.8741C67.8196 27.6173 67.4014 29.4216 66.8788 31.1648C66.5652 32.1672 65.9467 32.6378 65.1366 32.4373C64.3265 32.2369 63.9868 31.5134 64.2655 30.4675C64.6139 29.0206 65.0059 27.5911 65.3369 26.1094C65.7645 24.1322 65.998 22.1179 66.0338 20.0952C66.1035 17.646 65.9206 15.1967 66.1819 12.7649C66.1819 12.4424 66.3474 12.0327 65.999 11.8235C65.6505 11.6144 65.3631 11.9369 65.1279 12.085C64.6457 12.3515 64.225 12.7166 63.8933 13.1566C63.5616 13.5967 63.3263 14.1018 63.2028 14.6389C62.0355 18.997 60.7637 23.3551 59.7184 27.7655C58.8491 31.3979 56.9883 34.7172 54.3438 37.3533C51.8693 39.9226 49.8118 42.8636 48.2461 46.0695C47.1047 48.653 46.6371 51.484 46.8872 54.2976C46.8872 54.899 47.3489 54.9339 47.7583 55.0036L53.9082 56.0583C54.1567 56.0908 54.4017 56.1462 54.64 56.2239C54.9584 56.3103 55.2327 56.5132 55.4086 56.7925C55.5845 57.0718 55.649 57.4071 55.5894 57.7318C55.5334 58.0832 55.3453 58.3999 55.0635 58.6171C54.7817 58.8342 54.4276 58.9353 54.0737 58.8998C51.1033 58.4204 48.1416 57.9061 45.1886 57.3744C44.9159 57.3428 44.664 57.213 44.4797 57.0094C44.2954 56.8058 44.1914 56.5421 44.1869 56.2674C44.1259 52.781 43.8297 49.2248 45.2932 45.8778C46.7074 42.6551 48.6114 39.6708 50.9378 37.0308C52.0005 35.828 53.0633 34.6338 54.0999 33.4136C55.3907 31.8447 56.3081 30.0028 56.7829 28.027C57.6539 24.462 58.6644 20.9058 59.6226 17.3496C59.6989 17.0962 59.7244 16.8302 59.6975 16.5669C59.6706 16.3036 59.5918 16.0482 59.4658 15.8156C57.9588 12.8608 56.5737 9.8537 54.8316 7.02094C54.3689 6.32175 54.1223 5.50174 54.1223 4.66319C54.1223 3.82465 54.3689 3.00467 54.8316 2.30547C55.2367 1.59079 55.8305 1.00135 56.548 0.601655C57.2655 0.201962 58.079 0.0074051 58.8996 0.0392568C59.2506 0.0261656 59.5984 0.109394 59.9055 0.279931C60.2126 0.450468 60.4672 0.701801 60.6418 1.00674C62.1401 3.33106 63.5309 5.73964 64.8143 8.23248C65.0843 8.74673 65.3543 9.00823 65.9902 8.86877C66.5669 8.78285 67.1517 8.7653 67.7324 8.81647C67.918 8.79532 68.1059 8.81738 68.2815 8.88095C68.4571 8.94452 68.6156 9.04787 68.7446 9.18291C68.8737 9.31795 68.9698 9.481 69.0254 9.65937C69.081 9.83773 69.0946 10.0266 69.0652 10.2111C68.8736 12.1984 68.9868 14.1944 68.8387 16.1817C68.7689 16.9085 68.8521 17.6418 69.0827 18.3345C70.8064 23.4823 72.0372 28.7824 72.7586 34.1632C73.1492 36.4983 73.0651 38.8883 72.5113 41.1901C71.9575 43.492 70.9454 45.6585 69.5356 47.56C66.7394 51.3951 64.0564 55.3174 61.3299 59.1961C61.1734 59.4335 61.0017 59.6606 60.816 59.876C60.5988 60.1649 60.2758 60.3557 59.9181 60.4064C59.5603 60.457 59.1971 60.3635 58.9083 60.1462C58.6195 59.9289 58.4288 59.6057 58.3782 59.2477C58.3275 58.8897 58.4211 58.5263 58.6382 58.2373C59.7097 56.651 60.816 55.0908 61.9135 53.5306C63.7719 50.8808 65.6331 48.2369 67.4973 45.5988C69.5979 42.769 70.5333 39.2404 70.1105 35.7408C69.7388 32.4115 69.1245 29.1138 68.2726 25.8741ZM58.1766 2.90689C57.3055 2.90689 56.5128 4.42351 57.018 5.38229C58.2114 7.63978 59.5355 9.81882 60.6418 12.1199C60.7812 12.4075 60.9728 12.5296 61.1819 12.1809C61.5173 11.6292 61.918 11.12 62.3752 10.6643C62.4907 10.5523 62.5614 10.402 62.5743 10.2416C62.5871 10.0812 62.5411 9.92165 62.445 9.79268C61.3366 7.55659 60.1064 5.383 58.7602 3.28168C58.6295 3.08993 58.4902 2.87203 58.1766 2.90689Z" fill="url(#paint2_linear_2_1145)"/>
<path d="M55.8941 19.8687C55.8013 23.3749 54.4357 26.7274 52.0526 29.2996C49.6658 32.0452 46.7389 34.1284 43.8469 36.2726C41.6279 37.8076 39.5547 39.5437 37.6535 41.4587C37.5315 41.6371 37.3695 41.7844 37.1804 41.8889C36.9914 41.9935 36.7805 42.0523 36.5647 42.0608C36.3489 42.0693 36.134 42.0271 35.9374 41.9377C35.7407 41.8483 35.5678 41.7141 35.4322 41.5458C32.5489 38.408 28.9513 36.1854 25.6237 33.5967C23.5002 32.0653 21.6105 30.2332 20.0139 28.1578C16.7734 23.6428 16.0591 18.8053 18.6201 13.7063C19.6729 11.5026 21.4905 9.7571 23.7341 8.79494C25.9778 7.83279 28.4946 7.71965 30.8154 8.4766C32.6138 8.95853 34.2907 9.81383 35.7371 10.9869C36.312 11.4837 36.6952 11.3878 37.244 10.9869C39.3744 9.24698 41.992 8.21153 44.7354 8.02336C49.0909 7.75316 52.1746 9.93222 54.2652 13.6192C55.3247 15.5321 55.885 17.6816 55.8941 19.8687ZM27.5227 10.7079C26.1665 10.721 24.847 11.15 23.7421 11.9369C22.0315 13.2658 20.8002 15.1161 20.2343 17.2078C19.6685 19.2995 19.799 21.5187 20.6062 23.5295C21.6602 26.371 23.7247 28.3844 25.9373 30.2584C29.2126 33.0475 32.906 35.2789 36.0855 38.2075C36.5733 38.6521 36.8956 38.3731 37.2354 38.0506C38.9105 36.5499 40.6732 35.1499 42.5142 33.8582C45.2581 31.8099 48.0979 29.8748 50.354 27.199C51.4242 26.0168 52.2228 24.6146 52.6938 23.0908C53.1648 21.567 53.2968 19.9585 53.0805 18.3782C52.8341 16.0881 51.7441 13.972 50.023 12.4425C49.1725 11.6752 48.1417 11.1362 47.0266 10.8755C45.9116 10.6149 44.7487 10.6412 43.6466 10.952C41.4662 11.4406 39.473 12.5482 37.9061 14.1421C36.9391 15.1358 36.2336 15.1096 35.2318 14.1421C35.0315 13.9504 34.8398 13.7412 34.6307 13.5582C32.6572 11.8221 30.1482 10.8161 27.5227 10.7079Z" fill="url(#paint3_linear_2_1145)"/>
<path d="M56.0685 72.9851L50.5719 72.0611C48.3941 71.6864 46.2164 71.3028 44.0212 70.9454C41.3296 70.5009 40.1884 68.9059 40.6762 66.2387C40.8679 65.1928 41.0334 64.1381 41.2076 63.0835C41.2678 62.6087 41.4249 62.1513 41.6693 61.74C41.9138 61.3286 42.2403 60.972 42.6284 60.6924C43.0166 60.4127 43.4581 60.2161 43.9255 60.1146C44.3929 60.0131 44.8762 60.009 45.3453 60.1025C49.4453 60.7824 53.5394 61.4768 57.6277 62.1857C58.1037 62.2563 58.5599 62.4248 58.9676 62.6806C59.3753 62.9364 59.7256 63.2739 59.9965 63.6719C60.2674 64.0698 60.453 64.5196 60.5415 64.9929C60.6301 65.4662 60.6197 65.9527 60.511 66.4217C60.3019 67.5548 60.119 68.688 59.9361 69.8298C59.8328 70.7578 59.3697 71.6081 58.6465 72.1981C57.9233 72.7881 56.9977 73.0707 56.0685 72.9851ZM43.3679 67.0755C43.2721 67.8773 43.7773 68.043 44.3871 68.1476C48.2722 68.8013 52.1485 69.455 56.0162 70.1348C56.1417 70.1732 56.2743 70.1827 56.404 70.1626C56.5338 70.1425 56.6573 70.0933 56.7654 70.0187C56.8734 69.9441 56.9633 69.846 57.0281 69.7318C57.093 69.6176 57.1312 69.4902 57.1399 69.3591C57.3402 68.2871 57.5232 67.2062 57.7061 66.1254C57.7528 65.9862 57.7658 65.8379 57.7444 65.6926C57.7229 65.5474 57.6675 65.4092 57.5826 65.2894C57.4977 65.1697 57.3857 65.0716 57.2558 65.0033C57.1259 64.935 56.9818 64.8984 56.835 64.8964C55.6678 64.7221 54.5092 64.5042 53.3507 64.3037L45.3801 62.9179C44.8139 62.822 44.2041 62.7261 44.0473 63.5106C43.7773 64.696 43.5857 65.8901 43.3679 67.0755Z" fill="url(#paint4_linear_2_1145)"/>
<defs>
<linearGradient id="paint0_linear_2_1145" x1="6.9325" y1="-26.7341" x2="43.7807" y2="-19.1425" gradientUnits="userSpaceOnUse">
<stop stop-color="#8CD742"/>
<stop offset="1" stop-color="#27A02D"/>
</linearGradient>
<linearGradient id="paint1_linear_2_1145" x1="17.1888" y1="54.3" x2="35.6403" y2="66.6136" gradientUnits="userSpaceOnUse">
<stop stop-color="#8CD742"/>
<stop offset="1" stop-color="#27A02D"/>
</linearGradient>
<linearGradient id="paint2_linear_2_1145" x1="51.04" y1="-26.6724" x2="87.818" y2="-19.1031" gradientUnits="userSpaceOnUse">
<stop stop-color="#8CD742"/>
<stop offset="1" stop-color="#27A02D"/>
</linearGradient>
<linearGradient id="paint3_linear_2_1145" x1="26.3716" y1="-7.0933" x2="67.9234" y2="13.2767" gradientUnits="userSpaceOnUse">
<stop stop-color="#8CD742"/>
<stop offset="1" stop-color="#27A02D"/>
</linearGradient>
<linearGradient id="paint4_linear_2_1145" x1="45.3663" y1="54.3008" x2="63.8067" y2="66.5639" gradientUnits="userSpaceOnUse">
<stop stop-color="#8CD742"/>
<stop offset="1" stop-color="#27A02D"/>
</linearGradient>
</defs>
</svg>
