<svg width="32" height="18" viewBox="0 0 32 18" fill="none" xmlns="http://www.w3.org/2000/svg">
<path d="M22.8634 1.14816C22.6898 1.03523 22.4908 0.951669 22.2778 0.902297C22.0648 0.852924 21.842 0.838716 21.6222 0.860493C21.4025 0.882269 21.1902 0.9396 20.9975 1.02918C20.8049 1.11875 20.6357 1.2388 20.4998 1.38239L8.76604 13.783L3.01647 8.02359C2.88161 7.87603 2.71205 7.75224 2.51787 7.65957C2.32369 7.56691 2.10883 7.50726 1.88606 7.48416C1.66329 7.46106 1.43715 7.47498 1.22105 7.5251C1.00495 7.57522 0.803309 7.66052 0.628086 7.77592C0.452863 7.89133 0.307634 8.0345 0.201018 8.19693C0.0944032 8.35936 0.028575 8.53774 0.00744145 8.72148C-0.0136921 8.90522 0.0103 9.09058 0.0779931 9.26656C0.145686 9.44253 0.255701 9.60554 0.401506 9.74589L7.3915 16.8831C7.54927 17.043 7.74861 17.1717 7.97487 17.26C8.20113 17.3482 8.44856 17.3936 8.69899 17.3929C8.9648 17.4027 9.22963 17.3603 9.47156 17.2692C9.71349 17.1782 9.92558 17.0411 10.0903 16.8693L23.2154 3.09091C23.3492 2.9449 23.4463 2.77845 23.5011 2.60128C23.5559 2.4241 23.5672 2.23974 23.5345 2.05892C23.5017 1.87811 23.4255 1.70446 23.3103 1.5481C23.1951 1.39174 23.0431 1.25578 22.8634 1.14816ZM31.2447 1.14816C31.0711 1.03523 30.8721 0.951669 30.6591 0.902297C30.4461 0.852924 30.2233 0.838716 30.0035 0.860493C29.7838 0.882269 29.5715 0.9396 29.3788 1.02918C29.1862 1.11875 29.017 1.2388 28.8811 1.38239L17.1473 13.783L16.1248 12.7496L14.0127 14.9817L15.8566 16.8693C16.0144 17.0292 16.2137 17.158 16.44 17.2462C16.6662 17.3344 16.9137 17.3798 17.1641 17.3791C17.4159 17.3782 17.6642 17.3306 17.8905 17.24C18.1169 17.1493 18.3155 17.0179 18.4716 16.8556L31.5967 3.07713C31.7279 2.93155 31.8228 2.76612 31.8762 2.59032C31.9295 2.41452 31.9401 2.23181 31.9074 2.05263C31.8747 1.87346 31.7993 1.70134 31.6856 1.54614C31.5719 1.39094 31.4221 1.2557 31.2447 1.14816Z" fill="url(#paint0_linear_2_1065)"/>
<path d="M9.60411 10.5876L11.7665 8.35429L11.4312 8.02342C11.2989 7.87263 11.1308 7.74541 10.9371 7.64944C10.7435 7.55346 10.5282 7.49071 10.3042 7.46495C10.0803 7.43919 9.85233 7.45096 9.63406 7.49955C9.4158 7.54814 9.21174 7.63255 9.03418 7.7477C8.86198 7.86146 8.71882 8.0021 8.61293 8.16152C8.50703 8.32093 8.44049 8.49599 8.41712 8.67663C8.39375 8.85727 8.41403 9.03992 8.47677 9.2141C8.53952 9.38827 8.6435 9.55053 8.78274 9.69154L9.60411 10.5876Z" fill="url(#paint1_linear_2_1065)"/>
<defs>
<linearGradient id="paint0_linear_2_1065" x1="7.64876" y1="-6.46682" x2="32.7309" y2="14.3632" gradientUnits="userSpaceOnUse">
<stop stop-color="#8CD742"/>
<stop offset="1" stop-color="#27A02D"/>
</linearGradient>
<linearGradient id="paint1_linear_2_1065" x1="9.2124" y1="6.06459" x2="12.8898" y2="7.75957" gradientUnits="userSpaceOnUse">
<stop stop-color="#8CD742"/>
<stop offset="1" stop-color="#27A02D"/>
</linearGradient>
</defs>
</svg>
